
<svg width="256px" height="256px" viewBox="0 0 256 256" version="1.1" xmlns="http://www.w3.org/2000/svg" xmlns:xlink="http://www.w3.org/1999/xlink">
  <rect id="Rectangle-2-Copy-2" fill="#DA291C" x="64" y="64" width="128" height="128" rx="32"></rect>
  <path d="M148,103.018516 C142.521608,98.6268733 135.567574,96 128,96 C110.326888,96 96,110.326888 96,128 L96,169.993613 C96,173.316459 98.6862915,176 102,176 C105.306966,176 108,173.310849 108,169.993613 L108,152.981484 C113.478392,157.373127 120.432426,160 128,160 C145.673112,160 160,145.673112 160,128 L160,86.0063866 C160,82.6835413 157.313708,80 154,80 C150.693034,80 148,82.6891509 148,86.0063866 L148,103.018516 Z M128,148 C139.045695,148 148,139.045695 148,128 C148,116.954305 139.045695,108 128,108 C116.954305,108 108,116.954305 108,128 C108,139.045695 116.954305,148 128,148 Z" id="Combined-Shape" fill="#FFFFFF"></path>
</svg>